<?xml version="1.0" standalone="yes"?>
<svg xmlns="http://www.w3.org/2000/svg" width="75" height="88">
<path style="fill:#010101; stroke:none;" d="M0 0L0 45L1 45C8.84604 27.1618 28.9219 15.7267 40 0L0 0z"/>
<path style="fill:#ffffff; stroke:none;" d="M40 1.0324C34.0362 3.90823 28.837 11.0858 24.5756 16C15.4079 26.5723 -0.12271 36.7663 0.00462963 52C0.0972294 63.0778 8.64367 69.7772 16 76.9954C18.8895 79.8306 23.273 84.6531 27.7677 81.9676C31.8054 79.5552 30.012 74.9084 27.7207 72C23.1764 66.2318 9.80017 58.5148 11.3611 50C12.3387 44.6672 18.3997 39.6895 22 36C29.4294 28.3865 37.6609 20.1637 44.3657 11.9606C48.0312 7.47612 48.7419 -3.18309 40 1.0324z"/>
<path style="fill:#010101; stroke:none;" d="M46 0C48.8545 6.92966 44.5735 10.2799 41 16C46.2626 18.5738 66.5179 29.3859 62.9136 36.8758C58.6217 45.7943 43.6667 28.2038 38 27.2284C27.8876 25.4877 15.9717 38.6455 12.0131 47C6.89238 57.8071 29.3946 79.4106 40 76.5656C46.1227 74.9231 51.4304 63.2595 57.9552 64.7515C62.8925 65.8805 62.1408 70.968 59.7562 74C55.4617 79.4602 49.6751 84.8685 43 87L43 88L75 88L75 54L74 54C67.0171 61.5563 47.6473 58.2415 38 57.9853C34.2943 57.8869 27.6358 57.0537 27.6358 52.0008C27.6358 46.7376 34.4214 47.0074 38 47C47.0831 46.9813 67.4028 43.2633 74 50L75 50L75 0L46 0z"/>
<path style="fill:#ffc369; stroke:none;" d="M39 16L30 26L39 16z"/>
<path style="fill:#ffa117; stroke:none;" d="M29 28C36.7456 26.5629 40.8266 28.123 47 33.0031C50.2437 35.5673 55.2855 41.1882 59.9414 40.044C64.0875 39.025 64.4332 34.1223 62.3958 31.0895C52.612 16.5251 39.1688 13.5642 29 28z"/>
<path style="fill:#ffc369; stroke:none;" d="M16 25L17 26L16 25M28 28L29 29L28 28z"/>
<path style="fill:#b4b4b2; stroke:none;" d="M29.3179 48.0278C24.3756 51.3344 28.8431 56.7862 33.0046 57.6559C42.0171 59.5393 52.8047 58.0148 62 58C65.3688 57.9946 69.7732 58.4462 72.5656 56.142C75.7485 53.5156 74.9044 48.4511 70.8912 47.3179C61.9027 44.7798 49.3393 47 40 47C36.8472 47 32.0841 46.1771 29.3179 48.0278z"/>
<path style="fill:#010101; stroke:none;" d="M0 58L0 88L31 88L31 87C18.02 83.1447 8.30445 67.8713 0 58z"/>
<path style="fill:#ffa117; stroke:none;" d="M31 76C30.2496 80.8183 27.9636 83.1809 23 83C34.5355 94.5572 51.3521 85.3576 59.7708 75C62.5234 71.6135 63.8957 65.4138 57.956 64.3765C52.2515 63.3803 47.7917 70.6713 44 73.7716C39.8067 77.2002 36.0278 76.9301 31 76z"/>
<path style="fill:#ffc369; stroke:none;" d="M30.3333 75.6667L30.6667 76.3333L30.3333 75.6667M30.3333 79.6667L30.6667 80.3333L30.3333 79.6667M29 81L30 82L29 81M28 82L29 83L28 82M24 83L24 84L27 84L24 83z"/>
</svg>
